<?xml version="1.0" encoding="utf-8"?>
<!-- Generator: Adobe Illustrator 24.0.3, SVG Export Plug-In . SVG Version: 6.00 Build 0)  -->
<svg version="1.1" id="Layer_1" xmlns="http://www.w3.org/2000/svg" xmlns:xlink="http://www.w3.org/1999/xlink" x="0px" y="0px"
	 viewBox="0 0 264 262" style="enable-background:new 0 0 264 262;" xml:space="preserve">
<style type="text/css">
	.st0{fill-rule:evenodd;clip-rule:evenodd;fill:#E6E6E6;}
	.st1{filter:url(#Adobe_OpacityMaskFilter);}
	.st2{fill-rule:evenodd;clip-rule:evenodd;fill:#FFFFFF;}
	.st3{mask:url(#mask-2_1_);}
	.st4{fill-rule:evenodd;clip-rule:evenodd;fill:#0061F2;}
	.st5{filter:url(#Adobe_OpacityMaskFilter_1_);}
	.st6{mask:url(#mask-4_1_);}
	.st7{fill-rule:evenodd;clip-rule:evenodd;fill:#D0C6AC;}
	.st8{filter:url(#Adobe_OpacityMaskFilter_2_);}
	.st9{mask:url(#mask-6_1_);}
	.st10{fill-rule:evenodd;clip-rule:evenodd;fill:#EDB98A;}
	.st11{filter:url(#Adobe_OpacityMaskFilter_3_);}
	.st12{mask:url(#mask-6_2_);fill-rule:evenodd;clip-rule:evenodd;fill-opacity:0.1;}
	.st13{filter:url(#Adobe_OpacityMaskFilter_4_);}
	.st14{mask:url(#react-mask-345_1_);}
	.st15{fill-rule:evenodd;clip-rule:evenodd;fill:#3C4F5C;}
	.st16{filter:url(#Adobe_OpacityMaskFilter_5_);}
	.st17{opacity:0.6;mask:url(#react-mask-345_2_);}
	.st18{fill-rule:evenodd;clip-rule:evenodd;fill-opacity:0.16;}
	.st19{fill-rule:evenodd;clip-rule:evenodd;fill-opacity:0.7;}
	.st20{filter:url(#Adobe_OpacityMaskFilter_6_);}
	.st21{mask:url(#react-mask-227_1_);fill-rule:evenodd;clip-rule:evenodd;fill:#FFFFFF;}
	.st22{filter:url(#Adobe_OpacityMaskFilter_7_);}
	.st23{mask:url(#react-mask-227_2_);}
	.st24{fill-rule:evenodd;clip-rule:evenodd;fill:#FF4F6D;}
	.st25{fill-rule:evenodd;clip-rule:evenodd;fill-opacity:0.6;}
	.st26{fill-opacity:0.6;}
	.st27{filter:url(#Adobe_OpacityMaskFilter_8_);}
	.st28{mask:url(#react-mask-329_1_);}
	.st29{fill-rule:evenodd;clip-rule:evenodd;fill:#ECC797;}
	.st30{filter:url(#Adobe_OpacityMaskFilter_9_);}
	.st31{mask:url(#react-mask-330_1_);}
	.st32{fill-rule:evenodd;clip-rule:evenodd;fill:#4A312C;}
</style>
<desc>Created with getavataaars.com</desc>
<g id="Avataaar_1_">
	<g id="Avataaar_x2F_Circle" transform="translate(-825.000000, -1100.000000)">
		<g transform="translate(825.000000, 1100.000000)">
			<g id="Circle" transform="translate(12.000000, 40.000000)">
				<g id="Circle-Background">
					<circle id="path-1_1_" class="st0" cx="120" cy="102" r="120"/>
				</g>
				<defs>
					<filter id="Adobe_OpacityMaskFilter" filterUnits="userSpaceOnUse" x="0" y="-18" width="240" height="240">
						<feColorMatrix  type="matrix" values="1 0 0 0 0  0 1 0 0 0  0 0 1 0 0  0 0 0 1 0"/>
					</filter>
				</defs>
				<mask maskUnits="userSpaceOnUse" x="0" y="-18" width="240" height="240" id="mask-2_1_">
					<g class="st1">
						<circle id="path-1_2_" class="st2" cx="120" cy="102" r="120"/>
					</g>
				</mask>
				<g id="Color_x2F_Palette_x2F_Blue-01" class="st3">
					<rect id="_xD83D__xDD8D_Color" y="-18" class="st4" width="240" height="240"/>
				</g>
			</g>
			<g id="Mask">
			</g>
			<defs>
				<filter id="Adobe_OpacityMaskFilter_1_" filterUnits="userSpaceOnUse" x="0" y="0" width="322" height="280">
					<feColorMatrix  type="matrix" values="1 0 0 0 0  0 1 0 0 0  0 0 1 0 0  0 0 0 1 0"/>
				</filter>
			</defs>
			<mask maskUnits="userSpaceOnUse" x="0" y="0" width="322" height="280" id="mask-4_1_">
				<g class="st5">
					<path id="path-3_1_" class="st2" d="M12,142c0,66.3,53.7,120,120,120s120-53.7,120-120h12V-18H0v160H12z"/>
				</g>
			</mask>
			<g id="Avataaar" class="st6">
				<g id="Body" transform="translate(32.000000, 36.000000)">
					<g>
						<path id="path-5_1_" class="st7" d="M124,126.6V145h4l0,0c39.8,0,72,32.2,72,72v9H0v-9c0-39.8,32.2-72,72-72l0,0h4v-18.4
							c-17.2-8.2-29.6-24.9-31.7-44.7C38.5,81.1,34,76.1,34,70V56c0-5.9,4.3-10.9,10-11.8V38l0,0c0-30.9,25.1-56,56-56l0,0l0,0
							c30.9,0,56,25.1,56,56v6.2c5.7,1,10,5.9,10,11.8v14c0,6.1-4.5,11.1-10.3,11.9C153.6,101.7,141.2,118.4,124,126.6z"/>
					</g>
					<defs>
						<filter id="Adobe_OpacityMaskFilter_2_" filterUnits="userSpaceOnUse" x="-32" y="-18" width="264" height="244">
							<feColorMatrix  type="matrix" values="1 0 0 0 0  0 1 0 0 0  0 0 1 0 0  0 0 0 1 0"/>
						</filter>
					</defs>
					<mask maskUnits="userSpaceOnUse" x="-32" y="-18" width="264" height="244" id="mask-6_1_">
						<g class="st8">
							<path id="path-5_2_" class="st2" d="M124,126.6V145h4l0,0c39.8,0,72,32.2,72,72v9H0v-9c0-39.8,32.2-72,72-72l0,0h4v-18.4
								c-17.2-8.2-29.6-24.9-31.7-44.7C38.5,81.1,34,76.1,34,70V56c0-5.9,4.3-10.9,10-11.8V38l0,0c0-30.9,25.1-56,56-56l0,0l0,0
								c30.9,0,56,25.1,56,56v6.2c5.7,1,10,5.9,10,11.8v14c0,6.1-4.5,11.1-10.3,11.9C153.6,101.7,141.2,118.4,124,126.6z"/>
						</g>
					</mask>
					<g id="Skin_x2F__xD83D__xDC76__xD83C__xDFFD_-03-Brown" class="st9">
						<g id="Color" transform="translate(-32.000000, 0.000000)">
							<rect y="-18" class="st10" width="264" height="244"/>
						</g>
					</g>
					<defs>
						<filter id="Adobe_OpacityMaskFilter_3_" filterUnits="userSpaceOnUse" x="44" y="61" width="112" height="79">
							<feColorMatrix  type="matrix" values="1 0 0 0 0  0 1 0 0 0  0 0 1 0 0  0 0 0 1 0"/>
						</filter>
					</defs>
					<mask maskUnits="userSpaceOnUse" x="44" y="61" width="112" height="79" id="mask-6_2_">
						<g class="st11">
							<path id="path-5_3_" class="st2" d="M124,126.6V145h4l0,0c39.8,0,72,32.2,72,72v9H0v-9c0-39.8,32.2-72,72-72l0,0h4v-18.4
								c-17.2-8.2-29.6-24.9-31.7-44.7C38.5,81.1,34,76.1,34,70V56c0-5.9,4.3-10.9,10-11.8V38l0,0c0-30.9,25.1-56,56-56l0,0l0,0
								c30.9,0,56,25.1,56,56v6.2c5.7,1,10,5.9,10,11.8v14c0,6.1-4.5,11.1-10.3,11.9C153.6,101.7,141.2,118.4,124,126.6z"/>
						</g>
					</mask>
					<path id="Neck-Shadow" class="st12" d="M156,61v23c0,30.9-25.1,56-56,56s-56-25.1-56-56V61v15c0,30.9,25.1,56,56,56
						s56-25.1,56-56V61z"/>
				</g>
				<g id="Clothing_x2F_Shirt-Crew-Neck" transform="translate(0.000000, 170.000000)">
					<g id="Clothes">
						<path id="react-path-344_1_" class="st0" d="M166,11.3c37,3,66,34,66,71.8V92H32v-8.9C32,45,61.6,13.8,99,11.2
							c0,0.4,0,0.7,0,1.1c0,11.9,15,21.5,33.5,21.5S166,24.2,166,12.3C166,12,166,11.6,166,11.3z"/>
					</g>
					<defs>
						<filter id="Adobe_OpacityMaskFilter_4_" filterUnits="userSpaceOnUse" x="0" y="-18" width="264" height="110">
							<feColorMatrix  type="matrix" values="1 0 0 0 0  0 1 0 0 0  0 0 1 0 0  0 0 0 1 0"/>
						</filter>
					</defs>
					<mask maskUnits="userSpaceOnUse" x="0" y="-18" width="264" height="110" id="react-mask-345_1_">
						<g class="st13">
							<path id="react-path-344_2_" class="st2" d="M166,11.3c37,3,66,34,66,71.8V92H32v-8.9C32,45,61.6,13.8,99,11.2
								c0,0.4,0,0.7,0,1.1c0,11.9,15,21.5,33.5,21.5S166,24.2,166,12.3C166,12,166,11.6,166,11.3z"/>
						</g>
					</mask>
					<g id="Color_x2F_Palette_x2F_Gray-01" class="st14">
						<rect id="_xD83D__xDD8D_Color_1_" y="-18" class="st15" width="264" height="110"/>
					</g>
					<defs>
						<filter id="Adobe_OpacityMaskFilter_5_" filterUnits="userSpaceOnUse" x="92.9" y="-13.1" width="79.3" height="53.8">
							<feColorMatrix  type="matrix" values="1 0 0 0 0  0 1 0 0 0  0 0 1 0 0  0 0 0 1 0"/>
						</filter>
					</defs>
					<mask maskUnits="userSpaceOnUse" x="92.9" y="-13.1" width="79.3" height="53.8" id="react-mask-345_2_">
						<g class="st16">
							<path id="react-path-344_3_" class="st2" d="M166,11.3c37,3,66,34,66,71.8V92H32v-8.9C32,45,61.6,13.8,99,11.2
								c0,0.4,0,0.7,0,1.1c0,11.9,15,21.5,33.5,21.5S166,24.2,166,12.3C166,12,166,11.6,166,11.3z"/>
						</g>
					</mask>
					<g id="Shadowy" class="st17">
						<g id="Hola-_xD83D__xDC4B__xD83C__xDFFC_" transform="translate(92.000000, 4.000000)">
							<ellipse class="st18" cx="40.5" cy="9.8" rx="39.6" ry="26.9"/>
						</g>
					</g>
				</g>
				<g id="Face" transform="translate(76.000000, 82.000000)">
					<g id="Mouth_x2F_Smile" transform="translate(2.000000, 52.000000)">
						<g id="Mouth">
							<path id="react-path-226_1_" class="st19" d="M35.1-2.9C36.2,6.6,44.2,14,54,14c9.8,0,17.9-7.4,18.9-17C73-3.7,72.1-5,71-5
								c-14.9,0-26.3,0-34,0C36-5,35-3.8,35.1-2.9z"/>
						</g>
						<defs>
							<filter id="Adobe_OpacityMaskFilter_6_" filterUnits="userSpaceOnUse" x="39" y="-16" width="31" height="16">
								<feColorMatrix  type="matrix" values="1 0 0 0 0  0 1 0 0 0  0 0 1 0 0  0 0 0 1 0"/>
							</filter>
						</defs>
						<mask maskUnits="userSpaceOnUse" x="39" y="-16" width="31" height="16" id="react-mask-227_1_">
							<g class="st20">
								<path id="react-path-226_2_" class="st2" d="M35.1-2.9C36.2,6.6,44.2,14,54,14c9.8,0,17.9-7.4,18.9-17C73-3.7,72.1-5,71-5
									c-14.9,0-26.3,0-34,0C36-5,35-3.8,35.1-2.9z"/>
							</g>
						</mask>
						<path id="Teeth" class="st21" d="M44-16h21c2.8,0,5,2.2,5,5v6c0,2.8-2.2,5-5,5H44c-2.8,0-5-2.2-5-5v-6C39-13.8,41.2-16,44-16z
							"/>
						<defs>
							<filter id="Adobe_OpacityMaskFilter_7_" filterUnits="userSpaceOnUse" x="38" y="6" width="32" height="22">
								<feColorMatrix  type="matrix" values="1 0 0 0 0  0 1 0 0 0  0 0 1 0 0  0 0 0 1 0"/>
							</filter>
						</defs>
						<mask maskUnits="userSpaceOnUse" x="38" y="6" width="32" height="22" id="react-mask-227_2_">
							<g class="st22">
								<path id="react-path-226_3_" class="st2" d="M35.1-2.9C36.2,6.6,44.2,14,54,14c9.8,0,17.9-7.4,18.9-17C73-3.7,72.1-5,71-5
									c-14.9,0-26.3,0-34,0C36-5,35-3.8,35.1-2.9z"/>
							</g>
						</mask>
						<g id="Tongue" class="st23">
							<g transform="translate(38.000000, 24.000000)">
								<circle class="st24" cx="11" cy="-7" r="11"/>
								<circle class="st24" cx="21" cy="-7" r="11"/>
							</g>
						</g>
					</g>
					<g id="Nose_x2F_Default" transform="translate(28.000000, 40.000000)">
						<path id="Nose" class="st18" d="M16-10c0,4.4,5.4,8,12,8l0,0c6.6,0,12-3.6,12-8"/>
					</g>
					<g id="Eyes_x2F_Default-_xD83D__xDE00_" transform="translate(0.000000, 8.000000)">
						<circle id="Eye" class="st25" cx="30" cy="4" r="6"/>
						<circle id="Eye_1_" class="st25" cx="82" cy="4" r="6"/>
					</g>
					<g id="Eyebrow_x2F_Outline_x2F_Default">
						<g id="I-Browse" transform="translate(12.000000, 6.000000)">
							<path id="Eyebrow" class="st26" d="M3.6-6.8c3.9-5.5,14.6-8.6,23.9-6.3c1.1,0.3,2.2-0.4,2.4-1.5c0.3-1.1-0.4-2.2-1.5-2.4
								C17.7-19.7,5.3-16.1,0.4-9.2C-0.3-8.3-0.1-7,0.8-6.4S3-5.9,3.6-6.8z"/>
							<path id="Eyebrow_1_" class="st26" d="M84.4-6.8c-3.9-5.5-14.6-8.6-23.9-6.3c-1.1,0.3-2.2-0.4-2.4-1.5s0.4-2.2,1.5-2.4
								c10.7-2.6,23.2,0.9,28.1,7.9c0.6,0.9,0.4,2.1-0.5,2.8S85-5.9,84.4-6.8z"/>
						</g>
					</g>
				</g>
				<g id="Top">
					<g id="Mask_1_">
					</g>
					<defs>
						<filter id="Adobe_OpacityMaskFilter_8_" filterUnits="userSpaceOnUse" x="58" y="0" width="264" height="280">
							<feColorMatrix  type="matrix" values="1 0 0 0 0  0 1 0 0 0  0 0 1 0 0  0 0 0 1 0"/>
						</filter>
					</defs>
					<mask maskUnits="userSpaceOnUse" x="58" y="0" width="264" height="280" id="react-mask-329_1_">
						<g class="st27">
							<rect id="react-path-331_1_" y="-18" class="st2" width="264" height="280"/>
						</g>
					</mask>
					<g id="Top_x2F_Long-Hair_x2F_Straight-_x2B_-Strand" class="st28">
						<g transform="translate(-1.000000, 0.000000)">
							<g id="Hair" transform="translate(59.000000, 18.000000)">
								<g>
									<path id="react-path-332_1_" class="st29" d="M8.5,70.7C8.2,71.7,8,72.9,8,74v13c0,6,4.4,11,10.2,11.9
										c1.7,20.2,14.3,37.4,31.8,45.7V163h-4l0,0c-15.6,0-30.1,5-41.9,13.4C1.5,168.8,0,160.6,0,152V56l0,0c0-40.9,33.1-74,74-74
										l0,0l0,0c40.9,0,74,33.1,74,74v96c0,8.6-1.5,16.8-4.1,24.4C132.1,168,117.6,163,102,163l0,0h-4v-18.4
										c17.5-8.3,30-25.5,31.8-45.7C135.6,98,140,93,140,87V74c0-1.7-0.3-3.3-1-4.8c-13-2.2-27.5-7.5-41.9-15.7
										c-12.1-7-22.5-15.2-30.5-23.7c3.4,7.9,7.6,14.8,12.4,20.8C66.4,45,57.8,36.1,53.2,23.9c-0.4,0.9-0.8,1.8-1.2,2.8
										C42.2,48.8,25.6,64.7,8.5,70.7z"/>
								</g>
								<defs>
									<filter id="Adobe_OpacityMaskFilter_9_" filterUnits="userSpaceOnUse" x="0" y="-18" width="264" height="280">
										<feColorMatrix  type="matrix" values="1 0 0 0 0  0 1 0 0 0  0 0 1 0 0  0 0 0 1 0"/>
									</filter>
								</defs>
								<mask maskUnits="userSpaceOnUse" x="0" y="-18" width="264" height="280" id="react-mask-330_1_">
									<g class="st30">
										<path id="react-path-332_2_" class="st2" d="M8.5,70.7C8.2,71.7,8,72.9,8,74v13c0,6,4.4,11,10.2,11.9
											c1.7,20.2,14.3,37.4,31.8,45.7V163h-4l0,0c-15.6,0-30.1,5-41.9,13.4C1.5,168.8,0,160.6,0,152V56l0,0c0-40.9,33.1-74,74-74
											l0,0l0,0c40.9,0,74,33.1,74,74v96c0,8.6-1.5,16.8-4.1,24.4C132.1,168,117.6,163,102,163l0,0h-4v-18.4
											c17.5-8.3,30-25.5,31.8-45.7C135.6,98,140,93,140,87V74c0-1.7-0.3-3.3-1-4.8c-13-2.2-27.5-7.5-41.9-15.7
											c-12.1-7-22.5-15.2-30.5-23.7c3.4,7.9,7.6,14.8,12.4,20.8C66.4,45,57.8,36.1,53.2,23.9c-0.4,0.9-0.8,1.8-1.2,2.8
											C42.2,48.8,25.6,64.7,8.5,70.7z"/>
									</g>
								</mask>
								<g id="Skin_x2F__xD83D__xDC76__xD83C__xDFFD_-03-Brown_1_" class="st31">
									<g id="Color_1_" transform="translate(0.000000, 0.000000) ">
										<rect y="-18" class="st32" width="264" height="280"/>
									</g>
								</g>
							</g>
							<path id="Shadow" class="st18" d="M59,84.4v6.4c19.9-3.1,40.6-20.4,52-46.2c0.4-0.9,0.8-1.8,1.2-2.8
								c4,10.7,11.1,18.8,21.3,24.4c1.5,2.2,3,4.3,4.6,6.3c-12.7-5.5-21.3-14.4-25.9-26.6c-0.4,0.9-0.8,1.8-1.2,2.8
								C99.6,74.4,78.9,91.8,59,94.8V84.4z M207,83.1v9.1c-15-0.9-33.1-6.5-50.9-16.8c-10.3-5.9-19.3-12.7-26.6-19.9
								c-1.4-2.5-2.6-5.1-3.8-7.9c8,8.5,18.3,16.7,30.5,23.7C173.9,81.7,192,87.4,207,88.3V83.1z"/>
						</g>
					</g>
				</g>
			</g>
		</g>
	</g>
</g>
</svg>
