<?xml version="1.0" encoding="utf-8"?>
<!-- Generator: Adobe Illustrator 24.0.3, SVG Export Plug-In . SVG Version: 6.00 Build 0)  -->
<svg version="1.1" id="Layer_1" xmlns="http://www.w3.org/2000/svg" xmlns:xlink="http://www.w3.org/1999/xlink" x="0px" y="0px"
	 viewBox="0 0 857.6 649.6" style="enable-background:new 0 0 857.6 649.6;" xml:space="preserve">
<style type="text/css">
	.st0{fill:#EFF3F9;}
	.st1{fill:#E3E6EC;}
	.st2{fill:#F76400;}
	.st3{fill:#FFFFFF;}
	.st4{fill:#DE8E68;}
	.st5{fill:#07A37E;}
	.st6{fill:#E59E85;}
	.st7{fill:#E29307;}
	.st8{fill:#FED892;}
	.st9{fill:none;stroke:#000000;stroke-width:0.95;stroke-miterlimit:10;}
	.st10{fill:none;stroke:#000000;stroke-width:1.0746;stroke-linecap:round;stroke-miterlimit:10;}
	.st11{fill:#00BA94;}
	.st12{fill:#ED4840;}
	.st13{fill:#F4A100;}
	.st14{fill:#E09577;}
	.st15{fill:#FCB330;}
	.st16{fill:#D3876C;}
</style>
<g id="Background">
	<path class="st0" d="M97.7,0h659.1c10.6,0,19.2,6.4,19.2,14.2v482.5c0,7.9-8.6,14.2-19.2,14.2H97.7c-10.6,0-19.2-6.4-19.2-14.2
		V14.2C78.5,6.4,87.1,0,97.7,0z"/>
	<path class="st1" d="M97.7,0h659.1c10.6,0,19.2,9,19.2,20v34.6H78.5V20C78.5,9,87.1,0,97.7,0z"/>
	<circle class="st2" cx="116.9" cy="28" r="8.6"/>
	<circle class="st2" cx="144.6" cy="28" r="8.6"/>
	<circle class="st2" cx="172.3" cy="28" r="8.6"/>
	<rect x="114.1" y="94.4" class="st3" width="290.9" height="157.6"/>
	<rect x="114.1" y="289.4" class="st3" width="290.9" height="180.6"/>
	<rect x="444.6" y="266.4" class="st3" width="290.9" height="203.6"/>
	<rect x="444.6" y="94.7" class="st1" width="290.9" height="14.8"/>
	<rect x="444.6" y="137.6" class="st1" width="290.9" height="14.8"/>
	<rect x="444.6" y="180.5" class="st1" width="290.9" height="14.8"/>
	<rect x="444.6" y="222.9" class="st1" width="290.9" height="14.8"/>
</g>
<g id="Foreground">
	<rect x="608.5" y="503.2" class="st4" width="15.3" height="23.2"/>
	<rect x="788.8" y="601.2" class="st4" width="15.3" height="23.2"/>
	<path class="st5" d="M720.8,288.5c-18.5,0-101.1,82.1-108.3,95.9c-7.2,13.8-5.1,121.9-5.1,121.9l17.8,3.4L654.1,409
		c12.6-1.5,65.6-12.9,93-35c27.4-22.2-2.6-71.7-2.6-71.7L720.8,288.5z"/>
	<path class="st6" d="M689.9,177c-9.1,8.1-27.3,28.4-28.8,31c-4.6-2.2-52.5-27.4-56.1-29s-11.2-14.3-13.8-14.3
		c-1.5,0-2.9,2.9-2.9,4.9c0,3.4,1.6,6,2.6,7.1c-3.4-0.5-33.4-2.8-33.4-0.8c0,5.2,33.6,12.1,36.2,13.5c2.6,1.4,57.3,52,76.3,52
		c7.4,0,40.1-22.2,40.1-24.6c3.1-2.1,7.9-5.2,7.9-5.2V194l-11.4-8.3C706.6,185.6,691.7,175.4,689.9,177z"/>
	<path class="st7" d="M688.7,171.2c2-16.2,39.3-53,56.4-36.6c14.9,14.3-12.1,65.4-19,67.4C718.3,202.8,688.2,182.2,688.7,171.2z"/>
	<path class="st8" d="M802.5,137.5c19-8,45.6,36,42.6,52c0,7-39,22-45,18S783.5,145.5,802.5,137.5z"/>
	<path class="st9" d="M770.3,196.6"/>
	<path class="st10" d="M823.3,87.5"/>
	<path class="st11" d="M725.9,295.6l62.8,305.5h16.1l5.7-272.5c0-4.7-0.4-34.3-0.4-38.1C791.9,295.8,753.1,300,725.9,295.6z"/>
	<polygon points="788.8,624.4 804.1,624.4 804.1,641 761.9,641 	"/>
	<polygon points="608.5,526.4 623.8,526.4 623.8,543 581.6,543 	"/>
	<path class="st12" d="M526,543h163.4c5.2,0,9.3,4.2,9.3,9.3v87.9c0,5.2-4.2,9.3-9.3,9.3H526c-5.2,0-9.3-4.2-9.3-9.3v-87.9
		C516.6,547.2,520.8,543,526,543z"/>
	<path class="st12" d="M99.6,649.6L43.4,649c-4.1,0-7.6-2.8-8.7-6.7L15,570.1c-1.6-5.8,2.8-11.5,8.8-11.5h94.3
		c5.9,0,10.3,5.6,8.8,11.3l-18.4,72.8C107.5,646.8,103.9,649.6,99.6,649.6z"/>
	<path class="st13" d="M760.9,114c47,0,63.4,39.1,63.4,51.8c0,12.7-14.7,90.2-14.1,124.7c0.1,5.7-84.3,10.8-95.8,2.5
		C709,289.1,697.4,114,760.9,114z"/>
	<path class="st14" d="M845.1,189.5c13.3,20.4,12.5,67.4,12.5,74.5s-49.6,70.9-53.9,70.9c-2.6-2.6-9.8-10.5-9.8-12.9
		c2.3-4.2,31.8-68.7,37.1-73.3c-2.4-2.9-23.5-36-24.4-41.5C825.1,204.1,843,196.3,845.1,189.5z"/>
	<path class="st15" d="M845.1,189.5c3-16-21.3-62.4-42.6-52c-18.5,9.1-8.4,66-2.4,70C807.3,210.6,842.3,200.1,845.1,189.5z"/>
	<path class="st16" d="M748.9,104.4c-1,3.1-1.5,12.7-0.4,17c0.1,0.2,20,1.7,22.2-1.8c0.1-2.9,4.9-28.7,11.4-36.7
		c0.6-0.9-0.7-3.4-0.7-3.4l-23.1,9.6L748.9,104.4"/>
	<path d="M778.8,81.7c1.5,2,3.4,2.9,5.1,2.9c3.8,0,12.6-3.5,12.6-16c0-9-8.8-13.6-8.8-17.9c0-4.1,1.1-4.2,1.1-7.6
		c0-1.7-1.7-7.3-7-7.3c-3,0-4.1,2.5-7.1,2.5c-3.3,0-6.3-6.4-11.3-6.4c-3.4,0-6.6,3.2-10.2,3.2c-4.1,0-6.9-6.1-12.6-6.1
		c-5.9,0-8,5.3-10.3,5.3c-2.9,0-3.4-0.8-6.3-0.8c-1.8,0-7.3,3.2-7.3,9c0,4.1,1.7,10.8,10.2,10.8c5,0,7.8,7.9,12.2,7.9
		c1.7,0,3.2-1.4,3.6-0.7c1.7,3,5.2,11.2,5.2,11.2l15.9,8.9L778.8,81.7z"/>
	<path class="st14" d="M775.3,77.6c0,1.4-0.5,1.7-2.6,1.7c-1,0-2.4-1.3-2.4-2.7c0-3.3,2.4-4,2.4-8.3c0-7.3-19.1-11.1-25.8-14.9l0,0
		c-2.4,2.4-4.1,5.5-4.8,9l-4.3,22.1c-1.9,9.6,4.4,18.9,13.9,20.8s18.9-4.4,20.8-13.9l0.7-3.8l0,0c0.4,0.1,0.8,0.2,1.1,0.2
		c2.5,0,4.4-2.3,4.4-5.1C778.9,80.1,775.3,75.5,775.3,77.6z"/>
	<path class="st5" d="M83.4,523.9C63.1,388,13.4,316.7,7.1,319.4c-8.9,3.9-11.5,80.2,4.4,159c0.4,0,0.7-0.1,1.1-0.1
		c4.6,0,8.3,3.7,8.3,8.3c0,1.4-0.3,2.7-0.9,3.8c2.7,1.4,4.6,4.2,4.6,7.4c0,4-2.9,7.4-6.7,8.2c4.7,18.2,10.6,36.2,17.6,52.9
		c3.6,0,44,0,44,0S86.4,543.7,83.4,523.9z"/>
	<path class="st11" d="M200.9,379.8c-12.3,0-25.5,35.4-40.1,35.4c-3.2,0-5.3-3.5-5.3-6.8c0-3.2,10.1-38.4,10.1-55.5
		c0-1.5-0.1-3.1-0.3-4.7c-1.6,1-3.6,1.6-5.6,1.6c-6,0-10.9-4.9-10.9-10.9c0-5.3,3.7-9.6,8.7-10.7c-5.1-6.5-12.6-11.1-22.8-11.1
		c-12.9,0-31.1,11.5-31.1,29.3c0,5,1.5,17.7,1.5,29.2c0,65.2-51.1,75-51.1,147.2c0,15.2,8.4,31.9,10.9,36c0,0,42.8,0.5,46.9,0.5
		s37.4-55.6,41.2-61.5c14.5-22.4,62.7-47,62.7-100.5C215.7,389.8,213,379.8,200.9,379.8z"/>
</g>
</svg>
