<?xml version="1.0" encoding="utf-8"?>
<!-- Generator: Adobe Illustrator 24.0.3, SVG Export Plug-In . SVG Version: 6.00 Build 0)  -->
<svg version="1.1" id="Layer_2_1_" xmlns="http://www.w3.org/2000/svg" xmlns:xlink="http://www.w3.org/1999/xlink" x="0px" y="0px"
	 viewBox="0 0 862.2 1062.4" style="enable-background:new 0 0 862.2 1062.4;" xml:space="preserve">
<style type="text/css">
	.st0{fill:#FFFFFF;}
	.st1{fill:#0061C1;}
	.st2{fill:#F3F3F3;}
	.st3{fill:#0061F2;}
	.st4{fill:#DE8E68;}
	.st5{fill:#E29205;}
	.st6{fill:#F4A100;}
	.st7{fill:#F4AD3B;}
	.st8{fill:#3F2706;}
	.st9{fill:#E81500;}
	.st10{fill:#00BA94;}
	.st11{fill:none;stroke:#00BA94;stroke-width:9;stroke-linecap:round;stroke-miterlimit:10;}
</style>
<title>Artboard 1</title>
<path class="st0" d="M704,508v427.7c0,31.3-25.3,56.6-56.6,56.6l0,0H315c-31.3,0-56.6-25.3-56.6-56.6l0,0V87.1
	c0-31.3,25.3-56.6,56.6-56.6h332.4c31.3,0,56.6,25.3,56.6,56.6l0,0L704,508"/>
<path class="st1" d="M622.2,1010.2l-73.5-101.8c0,0-41.4-57.2-67.4-58.2c-0.2,15,0.8,122.6,5.4,159.9L622.2,1010.2L622.2,1010.2z"/>
<path class="st2" d="M385.8,8.1h190.8c8.7,0,15.7,7,15.7,15.7v24.1c0,8.7-7,15.7-15.7,15.7H385.8c-8.7,0-15.7-7-15.7-15.7V23.8
	C370.1,15.2,377.1,8.1,385.8,8.1z"/>
<path class="st3" d="M690.4,993.9H704V828.3l-114.6-19l-108.2,41c5.1,11.6,32,88.6,89.7,156h119.4L690.4,993.9L690.4,993.9z"/>
<path class="st4" d="M449.3,587.7c-9.3-0.2-9.3,14.1-9.3,14.1c-4.5-13.4-102.7-257.7-102.7-257.7s-20.3,8.6,3.1,54.8
	c-7.6,4.5-28.7,21.4-20,48.6c6.6,20.4,21,27.6,30,27.6c-1.5,15.3,31.2,171.6,35.5,179.1c10,17.7,29.3,37,40.7,37.5
	c18.2,0.9,63-23,74.1-35.5S466.8,588,449.3,587.7z"/>
<path class="st5" d="M584.5,501.5C540.2,462,432.1,556.6,434.2,573s60.3,75.7,77.4,70.7C528.7,638.7,619.4,532.5,584.5,501.5z"/>
<path class="st6" d="M704,508c-19.7-31.9-48.6-52.5-90-52.5c-143.7,0-147.8,374-132.8,394.8c13.3,18.4,171.8,23.2,222.8,10.5"/>
<path class="st4" d="M704,644.5l-15.1,6.2c1.3,4.8,7.1,31.7,15.1,61.4"/>
<path class="st7" d="M704,504.7c-10-7.4-20.2-10.4-29.6-6.5c-54.2,22.6-15.6,158.5,0,163.5c5,1.6,16.4,0,29.6-3.5"/>
<path class="st4" d="M641.6,488.3c0,11.9-65.9,14.5-65.9,0v-81h65.9V488.3z"/>
<ellipse transform="matrix(0.3697 -0.9292 0.9292 0.3697 31.7984 792.3569)" class="st4" cx="599.9" cy="372.7" rx="80.3" ry="59.7"/>
<ellipse transform="matrix(0.5823 -0.813 0.813 0.5823 -53.828 697.0078)" class="st4" cx="651.4" cy="400.9" rx="18.9" ry="13.2"/>
<path class="st8" d="M706.8,362.9c0-11-10.3-23.1-12.2-36.9c-1-7,1.2-36.1-7-46c-17-20.4-27-16.2-40-21c-22.6-8.3-31.3-22-50-22
	c-21.2,0-29.8,11-45,11c-17.4,0-31.6-8-56-8c-13,0-30,17-30,32c0,35.5,33,30.4,33,39c0,6-2,10.8-2,19c0,10.8,14,17,22,17
	c24.4,0,27.6-3,27.6-3c4.8-9.7,11-18.6,18.4-26.5c1-1,16.8,10.1,42.6,11c21.2,0.7,36.1,4.8,36.1,14.7c0,7-2.6,27.7-2.4,33.5
	s2.2,9.6,3.5,9.6s2-1.9,10.2-1.9c8.7,0,9.4,10.7,10.9,10.7C675.3,395.1,706.8,388,706.8,362.9z"/>
<path class="st6" d="M312.1,230.8H362c14.8,0,26.8,12,26.8,26.8v49.9c0,14.8-12,26.8-26.8,26.8h-49.9c-14.8,0-26.8-12-26.8-26.8
	v-49.9C285.3,242.8,297.3,230.8,312.1,230.8z"/>
<circle class="st9" cx="376.4" cy="239.1" r="21.2"/>
<path class="st2" d="M649.2,0H313.3c-45.2,0-81.9,36.7-81.9,81.9v858.8c0,45.2,36.7,81.9,81.9,81.9l0,0h335.9
	c45.2,0,81.9-36.7,81.9-81.9V81.9C731.1,36.7,694.4,0,649.2,0z M704,508v427.7c0,31.3-25.3,56.6-56.6,56.6l0,0H315
	c-31.3,0-56.6-25.3-56.6-56.6l0,0V87.1c0-31.3,25.3-56.6,56.6-56.6h332.4c31.3,0,56.6,25.3,56.6,56.6l0,0L704,508L704,508z"/>
<path class="st10" d="M701.2,127.1h121.3c21.9,0,39.7,17.8,39.7,39.7l0,0c0,21.9-17.8,39.7-39.7,39.7H701.2
	c-21.9,0-39.7-17.8-39.7-39.7l0,0C661.5,144.8,679.3,127.1,701.2,127.1z"/>
<polygon class="st3" points="708.7,188 674.3,153.5 674.3,222.5 "/>
<circle class="st0" cx="720.9" cy="168.1" r="10"/>
<circle class="st0" cx="761.9" cy="168.1" r="10"/>
<circle class="st0" cx="802.8" cy="168.1" r="10"/>
<path class="st11" d="M158.7,933.3c14.9-6.4,26.5-16.3,26.5-44.8c0-133.5-158-97.5-158-208.4"/>
<path class="st10" d="M55,679.4c8.6,11.2-20.1,23.9-24.2,18.6S45.9,667.5,55,679.4z"/>
<path class="st10" d="M195,483.2c10.4,13.6-20.4,26-25.4,19.5S183.8,468.6,195,483.2z"/>
<path class="st10" d="M186.6,539.4c8.3,15-32,27.1-36,19.9S177.8,523.3,186.6,539.4z"/>
<path class="st10" d="M189,582.1c10.9,13.2-26.6,32.4-31.8,26.1S177.4,567.9,189,582.1z"/>
<path class="st10" d="M201.8,630c10.9,13.2-26.6,32.4-31.8,26.1S190.2,615.9,201.8,630z"/>
<path class="st10" d="M213,674.7c9.9,12-22.9,28.4-27.6,22.6S202.4,661.8,213,674.7z"/>
<path class="st10" d="M228,723.6c9.9,12-22.9,28.4-27.6,22.6S217.4,710.7,228,723.6z"/>
<path class="st10" d="M0.6,670.6c3.6-13.6,31.3,1.2,29.6,7.8S-3.2,685.2,0.6,670.6z"/>
<path class="st10" d="M0.1,718.5c-1.8-13.9,29.5-10.5,30.3-3.8S2,733.5,0.1,718.5z"/>
<path class="st10" d="M27.7,762c-9.1-10.7,18.9-25,23.3-19.9S37.5,773.4,27.7,762z"/>
<path class="st10" d="M62.4,785.5c-5.5-12.9,25.5-18.1,28.1-11.9S68.2,799.3,62.4,785.5z"/>
<path class="st10" d="M108.9,809.9c-5.5-12.9,25.5-18.1,28.1-11.9S114.8,823.7,108.9,809.9z"/>
<path class="st10" d="M143.8,845.3c-1.2-14,29.9-9.3,30.5-2.6S145.1,860.3,143.8,845.3z"/>
<path class="st10" d="M70.1,709.5c11,8.8-13.8,28.1-19.1,23.9S58.3,700,70.1,709.5z"/>
<path class="st10" d="M95,734.5c12.1,7.2-9.7,29.7-15.5,26.3S82.1,726.9,95,734.5z"/>
<path class="st10" d="M140.7,759.1c11.4,8.2-12.5,28.7-18,24.7C117.2,779.8,128.5,750.3,140.7,759.1z"/>
<path class="st11" d="M161.5,938.5c0-5.7,48.5-58.9,48.5-125c0-107.8-60.2-161.8-60.2-238.8c0-14.6,1.3-60.4,24.5-79"/>
<path class="st9" d="M227.4,1062.4H139c-4.1,0-7.8-2.6-9.1-6.6l-44-133.3c-1.6-5,1.1-10.4,6.1-12.1c1-0.3,2-0.5,3-0.5h176.8
	c5.3,0,9.6,4.3,9.6,9.6c0,1-0.2,2-0.5,3l-44.4,133.3C235.1,1059.8,231.5,1062.4,227.4,1062.4z"/>
<path class="st10" d="M242.2,779.7c5.2,14.7-31.2,18.9-33.6,11.9S236.7,763.9,242.2,779.7z"/>
<path class="st10" d="M182.8,801.3c11.5-10.4,29.5,21.5,23.9,26.5S170.4,812.5,182.8,801.3z"/>
<path class="st10" d="M173.5,761.5c7.6-13.5,34.7,11.1,31.1,17.5S165.3,776,173.5,761.5z"/>
<path class="st10" d="M164.8,714.3c7.6-13.5,34.7,11.1,31.1,17.5S156.6,728.8,164.8,714.3z"/>
<path class="st10" d="M149.3,676.8c5-14.8,36.2,4.3,33.8,11.4S143.9,692.5,149.3,676.8z"/>
<path class="st10" d="M127.3,625c7.3-13.8,35,10.1,31.5,16.7S119.6,639.8,127.3,625z"/>
<path class="st10" d="M117,567.4c8.5-13,34,13.3,29.9,19.5S107.9,581.4,117,567.4z"/>
<path class="st10" d="M122.1,517.8c8.5-13,34,13.3,29.9,19.5S113,531.8,122.1,517.8z"/>
<path class="st10" d="M242.2,830.7c5.2,14.7-31.2,18.9-33.6,11.9S236.7,815,242.2,830.7z"/>
</svg>
