<svg id="Layer_1" data-name="Layer 1" xmlns="http://www.w3.org/2000/svg" viewBox="0 0 2499.05 610.45"><title>dribbble</title><path d="M764,245.62a51.8,51.8,0,1,0-51.78-51.8A51.8,51.8,0,0,0,764,245.62Zm1709.12,177c-7.88-5.54-14-6.46-19,4.3-87,188.38-233.55,94.38-219,102.65,32.51-14.87,118-83.45,105.09-178.14-7.84-57.87-57.51-83.54-110.23-74.35-92,16.05-125.88,115.3-108.65,203.18,3,15.09,8.41,27.54,13.79,39.73-104,84.57-145.29-75.7-150-94.85-.18-1,80.3-68.11,102.68-228,23.47-167.54-30-198-84.63-197.09-101.13,1.76-128.46,213.06-91.75,389.17-3.07.8-17.38,8.72-40.38,9.61-16.54-52.06-87.25-97.7-105.75-80.11-46.31,44,11.23,130,51.72,136.74-24.32,149.8-176.43,112.7-148.11-75,49.53-92,87.2-228.75,80.48-311.31C1747,40,1725.42.79,1676.55,2.73c-94,3.72-104.24,215.08-93.21,365.09-.55-3.69-5.78,18.23-44.31,29.13-9.11-50.58-90.56-101.35-109.73-76.94-35.89,45.68,26.31,127.14,55.77,132.82-24.32,149.8-176.42,112.7-148.11-75,49.54-92,87.2-228.75,80.48-311.31-2.38-29.24-24-68.4-72.87-66.47-94,3.73-104.23,215.09-93.21,365.1-.55-3.75-5.91,18.89-46,29.61-1.34-65.63-83.08-95.72-102.72-74.78-35,37.32,8,113.91,47.81,132.83-24.32,149.8-176.42,112.7-148.11-75,49.53-92,87.2-228.75,80.48-311.31-2.38-29.24-24-68.4-72.87-66.47-94,3.73-101.58,225.71-90.56,375.72-31,132.67-134.8,298.35-121.31-33.54,1.33-23.28,2.79-32.12-8.82-40.84-8.7-6.78-28.48-3.52-39.29-3.25-13.14.53-16.43,8.22-19.34,19.84-6.76,30-8,59.1-8.94,98.79-.64,18.57-2.13,27.23-9.28,52.55s-47.88,71.58-70.19,63.84c-30.94-10.64-20.79-98-15-158,4.83-47.43-10.64-68.73-50.28-76.48-23.21-4.84-37.31-4.09-61.48-11.71-22.86-7.21-28-50.44-76.78-36-26.67,7.89-9.52,64.39-15.93,106.26-31.51,206-97.07,211.64-127.48,111.58C432.25,133.3,334.89,1,277.91,1c-59.35,0-127.2,40.89-98.47,302.47-14-4.08-18.26-6.27-33.56-6.27C59.4,297.24.48,367.15.48,453.4S59.4,609.56,145.89,609.56c51.05,0,86.9-23.22,114.05-59.13,17.71,25.36,39.28,59.52,78.72,58,117.57-4.58,151.76-245.75,155.8-259.2,12.57,1.94,24.46,5.61,36.06,7.54,19.34,2.91,20.75,10.56,20.31,30-5.13,164,25.14,221.45,93.8,221.45,38.25,0,72.34-37.58,95.83-64.46C758,580,786,607.11,823.45,608.22c90.87,2.26,125.66-142.58,122.49-123.52-2.49,15,29.48,122.7,123,123.09,115.88.49,137.42-126.94,140-148.29.32-4.24.46-3.8,0,0l-.09,1.3c36.79-6.85,55.77-26.57,55.77-26.57s29.54,175.54,139,173.57c113.63-2.06,135.05-117.25,137.87-139.72.37-5.33.59-4.7,0,0,0,.22,0,.44,0,.66,43.7-15.89,55.2-31.85,55.2-31.85s23.47,172.05,139,173.56c102.91,1.34,141.05-104,141.27-148.15,17.36.18,49.46-10.3,48.71-10.89,0,0,37.7,150.43,143,158.15,49.42,3.63,86.5-27.81,107.63-42.15,49.67,40.22,215.06,91.6,319.49-85.45,14.74-25.42-17-55.43-22.51-59.35ZM141.72,551.16c-50.46,0-82.82-46.66-82.82-97s29.7-97,80.16-97c22.71,0,35.34,2.5,53,17.88,3.21,12.64,12.3,41.79,16.72,55,5.93,17.72,13,32.79,20.08,49.2-10.15,42.09-43.44,71.83-87.16,71.83Zm123-174.57c-2.1-3.34-1.66-1.29-4-4.45C251.42,347,233.6,290.82,231.53,227c-2.33-72.16,9.69-156.74,45.15-156.74,24,0,49.56,171.42-12,306.3ZM975.15,301.4c-5.69-42.82-6-233.71,39.84-228.45C1040.29,83.2,999,263.33,975.15,301.4Zm334.64,0c-5.69-42.82-6-233.71,39.84-228.45C1374.93,83.2,1333.58,263.33,1309.79,301.4Zm332,2.66c-5.69-42.82-6-233.72,39.84-228.46C1706.9,85.85,1665.55,266,1641.76,304.06ZM2008.27,61.77c41.89-4.34,40.17,178.63-43.93,294.14-10.85-41.75-27.48-279.8,43.93-294.14Zm176.1,393.71c-13.46-68,21.32-112.62,57.16-117.52,12.53-2,30.69,6.12,34.31,21.29,5.95,28.6-.86,71-81.09,124.84a109.85,109.85,0,0,1-10.37-28.61Z" transform="translate(-0.48 0)"/></svg>