<svg id="Layer_1" data-name="Layer 1" xmlns="http://www.w3.org/2000/svg" viewBox="0 0 1701.12 416.6"><title>mailchimp</title><path d="M477.52,202.2Zm1143.4,103.7h.6c34.4,0,58.7-23.9,58.9-58,.1-16.9-4.8-32.4-13.8-43.6-9.5-11.8-22.8-18.1-38.5-18.3h-.3c-21.2,0-40.8,16.1-60.1,49.1l-1.5,2.6-1-2.9c-4.9-14.2-9.2-26-11.8-33-1.8-4.9-2.6-7.1-2.8-7.9-.9-3.6-4-5.8-8-5.8a14.14,14.14,0,0,0-7.6,2.4,8.84,8.84,0,0,0-4.3,6l-.1.4c-19.3,60.2-35.2,89.4-48.7,89.4a5.94,5.94,0,0,1-4.6-1.9c-3.5-3.9-2.7-13.2-1.5-26,.9-9.4,1.9-20.1,1.5-31.4-.8-21.8-12.7-34.9-31.9-35-24.4,0-40.1,25.9-47.4,41.4l-2.2,4.6-.5-5.1c-1.8-19.1-8.2-42-28.5-42.1-23.7,0-41.7,27.7-52.7,51l-2.9,6.2.3-6.9c1.3-31.1,2.4-49.4,3.2-54.5s.4-8.5-1.3-10.5c-1.6-1.8-4.6-2.5-8.9-2.2-7.6.5-11.4,5.1-17.3,20.5-9.6,25.4-33.9,84.4-53.4,84.4a11.58,11.58,0,0,1-9.2-3.9c-8.2-9.3-4.9-34.6-.4-69.6l.3-2.6c2.1-16.6-1.5-20.1-10.5-21.7a12.41,12.41,0,0,0-2.7-.3c-7.2,0-10.5,6.9-17.2,26-11.9,34-27.3,69.8-45.2,69.8a13.55,13.55,0,0,1-2-.2c-9.5-1.6-9.3-15.7-9-33.6.1-9.7.3-20.6-1.2-30.5-2.7-17.8-13.1-28.8-27.3-29-28.3,0-47.3,36.2-56.2,57.8l-2,4.9-.7-5.2c-1.7-13.9-2.9-27.8-3.4-41.7v-.5l.3-.4c52.9-66.6,76.6-114.7,77-155.8C1124.62,16,1112.52.2,1092,0c-15,0-50.7,12.5-63.1,128.3a649.91,649.91,0,0,0-3.7,65.4v.4l-.2.3c-24.2,35-75.9,95.3-126.4,95.3-45.7,0-82.2-37-82.2-102.2,0-87.5,61.9-141.2,108.5-141.2h.4c10.1.1,18.8,2.9,25.1,8.2a27.68,27.68,0,0,1,9.9,22.2c-.1,12.1-4,18.3-7.8,24.3-1,1.5-1.9,3.1-2.8,4.7s-1.7,4-.5,6.1,4.4,3.4,8.2,3.4c11.1,0,27.9-16.1,28-40.2.2-25.3-21.1-51.4-59.2-51.4C868.62,23.6,791,86.9,791,189.4c0,72.5,45.5,122.7,107.1,122.7,43.7,0,87-31.3,125.2-83.6l2.3-3.2.2,3.9c.8,19.1,2.2,34.2,3.2,45.2.7,7.1,1.1,12.2,1.1,15-.1,6.2,1,10.5,3.1,13.1s5.5,3.9,10.6,3.9c8.6,0,10.3-5.9,13.7-20.3l1-4.1c4.2-17.5,19.9-74.7,43.4-74.7a11.82,11.82,0,0,1,8.9,3.4c5.2,5.5,4.6,16.8,4,29.9-.4,8.2-.8,16.6,0,24.8,2.2,22.2,11.8,33,29.3,33.2,18,0,36.7-19.3,46.6-37.3l1.9-3.4.7,3.8c1.8,9.6,10,41.2,35.6,41.2,23.2,0,43.1-24.4,64.8-74.6l2.9-6.6-.2,7.2c-.5,19-1.5,42.3-1.5,60.2,0,13.9,1.4,19.2,7.8,19.2l1.5.1c6.2,0,10.3-3.7,12.4-11,16.4-57.2,30.6-83.8,44.6-83.8,13.7.1,15,25.2,16.1,69.7l.1,3.1c.3,15.5.9,22.4,10.5,22.5,7.3,0,9.1-5.8,12.9-19.9.7-2.7,1.5-5.7,2.4-8.9,13.2-45.9,24.2-64.7,37.9-64.7,11.7.1,12.3,12.1,12.6,16.1.5,8.5-.4,17.4-1.3,26-.8,8-1.6,16.2-1.3,23.9.7,18,10.6,27.9,27.7,28.1,22.3,0,42.3-26,59.9-77.4l1.2-3.6,1.4,3.5c3.2,8.1,7.4,19,11.2,32l.1.5-.2.5c-17,37.8-29.1,80-29.2,102.5-.2,29.7,13.2,48.9,34.2,49.1h.4c11.4,0,38-4.6,38.6-47,.2-17.4-3.9-42-12.2-73.1l-1-3.6,3.1,2a62.44,62.44,0,0,0,34.6,11ZM1047.22,162c.5-10.6,1.4-21,2.6-30.8,8.2-63.1,25.4-107.1,41.8-107.1h.1c7.8.1,11.7,6,11.6,17.6-.2,28.5-18.3,69.3-53.6,121.2l-2.8,4.1.3-5ZM1570,388.8a12.66,12.66,0,0,1-10.8,5.2c-5.2,0-9.2-1.9-11.8-5.4-7.5-10-5.4-33.5,6.8-76.1,1.5-5.1,3-10.2,4.7-15.2l1.4-4.3,1.2,4.3C1575.82,346.5,1578.72,377.3,1570,388.8Zm4.5-126.1-.3-.5-.5-1.6.2-.5c16.2-33.4,34.8-52.6,51-52.6h.2c18.3.1,30.9,16.6,30.7,39.9-.1,15.6-7,24.6-12.7,29.4a37.84,37.84,0,0,1-23.9,8.6c-21.5-.1-36.2-12.4-44.7-22.7Zm50.4-53.8ZM540.12,300.4c25-2,44.9-36,52.3-50.6l1.9-3.8.7,4.1c3.5,20.5,14.7,54.8,49.5,55.1h.3c15.1,0,32.1-9.2,49.4-26.6l1.3-1.3.9,1.5c11.6,19.4,27.2,29.8,43.8,28.9,24.4-1.3,39.3-18.6,40.6-30.6a10.36,10.36,0,0,0-2.2-7.9c-2.2-2.5-5.4-2.7-7.7-.5l-1.1,1.1c-5.7,5.5-16.3,15.6-27.8,16.2-14.1.7-24.6-7.8-31.4-25.2l-.3-.7.5-.6C749.72,208.6,777,131,774.32,79c-1.2-24.1-8.2-52.8-34.6-52.8h-2c-10.1.5-19.2,5.3-27.2,14.3-24.4,27.3-37.2,94.5-32.5,171.3a175,175,0,0,0,8.2,44.3l.3.8-.5.6c-14.4,16.9-28.7,26.1-40.1,26.1-27.5,0-26.6-46.1-24.4-84.3.5-8.2,1.2-13.5-1.3-16.5-1.7-2.1-4.7-3.2-8.9-3.2h-.5c-9.8,0-11.8,2-16.8,16.5-10.4,30.2-31,80.8-51.6,80.8-5.7-.1-10.1-2-13.1-5.8-10-12.8-2.4-44.7,3.7-70.4,1.1-4.6,2.2-9,3.1-13.1q1.95-9.15-1.2-13.2c-2.2-2.7-6.5-3.8-12.1-3.3-8.9.7-14.5,4.4-17.3,21.3l-.6,3.5-2.1-2.5c-3.9-5.7-11.4-12.5-25.4-12.5-1.2,0-2.5.1-3.8.2-14.9,1.2-31.9,11.6-44.4,27.2a90.7,90.7,0,0,0-19.5,64.6c.1,1.2.3,2.4.5,3.6l.1.7-.5.5c-8.7,9.5-17.5,14.3-26.3,14.3-13.5-.1-21.3-10.2-21.3-26.9,0-28.2,19.1-113.3,19.1-144.1,0-32.8-14.6-50.6-40-50.8h-.4c-37,0-65.9,42-93.5,128.5-2.6,8.3-5.2,16.6-7.6,25l-3.9,13,1.1-13.5q3.75-43.5,5.2-87.1c1.4-41.8-4.3-68.7-17.3-82.2-7-7.3-16.3-10.9-28.4-11h-.3c-45.3,0-67,76.4-82.9,130.4-4.8,16.3-14.2,53-20.5,78.1l3.7-6c2.8-31.6,10.9-110.8,10.3-153.8-.6-46.1-15.9-66.8-49.8-67h-.4c-18.1,0-30.6,9-38,16.5C6.92,52.8-.38,70.5,0,85.8c.2,9.3,5.9,17.5,10.3,17.5,2.8,0,4.4-3.8,5-6,10.5-34.6,24-51.5,41.4-51.5,7.2.1,12.6,2.2,16.6,6.5,13.6,14.6,11.1,53.9,6.6,125.4-1.4,23-3.1,49.1-4.5,78.8q-.3,7.35-.9,14.7c-1.3,20.6-2.4,36.9,5.4,38.1,10.2,1.6,16.8-2.5,20.2-12.6,5-14.9,16.3-55.8,38.1-130.4,20.9-71.6,36.7-97.7,57-97.7,23.4,0,25.1,40.1,20.8,124.8-.9,17.9-2.1,38.3-3.1,60.4-.1,3.1-.3,6.1-.4,9-.9,18.3-1.6,32.8,3.6,38.3a9,9,0,0,0,6.8,2.6c10.1,0,13.2-8.9,18.2-23.6.9-2.6,1.8-5.4,2.9-8.3,34.7-95.7,60.4-178.8,94.8-178.8,10.3,0,18.4,8.4,18.4,24.8,0,37.8-18.5,110.8-18.5,147.8,0,13.3,3.8,25.2,11,33.5,7.4,8.6,17.8,13.2,29.9,13.3h.3c11.5,0,23.5-5.6,35.7-16.6l1.1-1,.9,1.2c8,10.8,20.9,16.6,34.9,15.5,21.4-1.7,39.4-20.7,46.1-38.7l1.3-3.5,1.3,3.5c5.2,13.4,16,29.5,38.9,27.6ZM737.42,50.2h.4a8,8,0,0,1,6.4,3.6c8.5,11.5,8.6,53.4-6,101.2-8.4,27.3-19.6,53-32.5,74.5l-2.1,3.4-.5-4c-1.5-11.5-2.3-23.6-2.8-33.8-3.7-72,18.1-143.9,37.1-144.9ZM499.92,218.8c-7.5,30.1-21.9,66.5-47.8,68.6l-2.1.1c-10.7,0-16.8-7-17.9-20.9-1.4-17.4,6.1-37.7,19.1-51.8,8.3-9,17.6-13.9,26.3-13.9h.2c11,.1,18.6,8.9,22.2,17.1l.2.4-.2.4ZM620,108.3a16.9,16.9,0,1,0-.3,33.8l.1,1.4v-1.4A17.12,17.12,0,0,0,637,125.3c.2-9.3-7.5-16.9-17-17Zm601.2,0a16.9,16.9,0,1,0-.3,33.8l.1,1.4v-1.4a17.05,17.05,0,0,0,17.2-16.8c.2-9.3-7.5-16.9-17-17Z"/><path d="M1689.42,286.8a11.75,11.75,0,1,0,11.7,11.8A11.74,11.74,0,0,0,1689.42,286.8Zm0,21.8a10,10,0,1,1,10-10A10,10,0,0,1,1689.42,308.6Zm5.2-13.1c0-2.4-1.2-3.8-4.3-3.8h-5.2v13.5h1.7v-5.9h2.4l4,5.9h1.9l-4-5.9C1693.12,299,1694.62,298,1694.62,295.5Zm-5.5,2.3h-2.2v-4.6h3c1.5,0,3,.5,3,2.2C1692.92,297.7,1690.92,297.8,1689.12,297.8Z"/></svg>