<svg id="Layer_1" data-name="Layer 1" xmlns="http://www.w3.org/2000/svg" viewBox="0 0 2498.04 632"><title>pinterest</title><path d="M574.55,222.78c27.1,0,53.11-22.57,57.63-50.41,5.35-27.1-13-49.66-40.11-49.66s-53.1,22.56-57.7,49.66C529.09,200.21,546.71,222.78,574.55,222.78ZM2414,303.32h60.64c8.31,0,13.17-3.37,15.05-11.13q4.35-18,8.95-36c1.79-7-2.27-12.27-10-12.27h-59.83c4.31-17.14,21.09-72.81,21.09-109.11C2449.85,62.36,2388.3.7,2301,.7c-98.63,0-162.8,66.19-162.8,159.33,0,27.17,10.14,58.83,22.7,78.48q-8.11-.47-16.24-.46c-74.94,0-122.15,40.65-122.15,99.81,0,55.52,43.77,77.09,85,91.45,36.61,12.75,70.31,18.69,70.31,47.28,0,19.28-18.54,30.6-54.84,30.6-43.06,0-66.73-20.28-72.75-28,4.08-3.2,10.15-10.83,10.15-23.55,0-17.79-12.49-32.31-35.7-32.31-19.63,0-36.23,16-40.4,37.08-31.54,25.8-66,42.52-114.78,42.52-48.06,0-73-25-73-78.2,11.27,3.43,40.61,7.55,60,7.55,81.39,0,136.86-37,136.86-111,0-39.83-35-81.65-104.12-81.65H1889c-91,0-141.92,57.62-164.17,121q-9.35-2.25-18.73-4.37a144.59,144.59,0,0,0,8.55-48.41c0-31.3-19.38-68.22-71.26-68.22-36.13,0-70.41,23.67-94.16,59.14,5.91-23.14,9.83-38.55,10.08-39.58,1.55-6.05-1-12.79-10.41-12.79h-53.24c-7.59,0-12.94,2.68-15.1,11.32-1.45,5.76-19.74,77.53-37.55,147.42-11.21,43.58-69.24,97.82-142.17,97.82-48.08,0-73-26.64-73-79.86,12.58,5,40.61,9.21,60,9.21,84.7,0,136.86-37,136.86-111,0-39.82-35-81.64-104.13-81.64h-.15c-102.43,0-165.18,79.56-175.81,169.77-4.42,37.5-36.07,89-70.38,89-16.72,0-26-10.5-26-28.32,0-15.4,10.84-53,22.71-100.21,4-15.78,10-39.86,16.72-66.53h55.69c8.29,0,13.15-3.37,15-11.13,2.67-11.16,7.56-30.64,9-36,1.79-7-2.25-12.27-10-12.27h-54.76s25.21-100.59,25.81-103.17c2.43-10.23-6.13-16.14-15.09-14.25,0,0-42.32,8.28-50.17,9.92s-14,5.93-16.87,17.3L1023.78,244h-44c-8.29,0-13.16,3.39-15,11.12q-4.38,18-8.94,36c-1.82,7,2.24,12.27,10,12.27H1009c-.3,1.23-15.57,59.32-27.92,111.33-5.82,25-25.29,83.55-57.17,83.55-19,0-27.09-9.61-27.09-30.22,0-32.45,31.94-113.69,31.94-150.55,0-49.24-26.42-77.77-80.54-77.77-34.11,0-69.48,22-84.47,41.36,0,0,4.55-15.83,6.1-21.91,1.66-6.43-1.78-12.74-10.22-12.74H706.67c-11.26,0-14.37,6-16,12.64-.66,2.65-19.73,77.52-38,149.4-12.52,49.22-42.94,90.34-75.47,90.34-16.72,0-24.17-10.49-24.17-28.32,0-15.4,9.95-53.4,21.82-100.57,14.45-57.43,27.2-104.72,28.56-110.24,1.78-7.08-1.39-13.25-10.51-13.25H539.61c-9.64,0-13.08,5.06-15.11,12.09,0,0-15,56.72-30.85,119.86-11.53,45.82-24.25,92.49-24.25,114.42,0,39.13,17.57,68.63,65.88,68.63,37.28,0,66.78-18.91,89.31-43-3.31,13-5.42,21.3-5.63,22.14-2,7.45.41,14,9.19,14h54.47c9.49,0,13.13-3.81,15.11-12.08,1.91-7.89,42.59-167.92,42.59-167.92,10.76-43,37.36-71.45,74.77-71.45,17.75,0,33.11,11.75,31.33,34.58-2,25.12-32.27,115.35-32.27,155,0,30,11.12,68.76,67.55,68.76,38.46,0,66.78-18.44,87.37-42.24,7.54,25.26,27.51,42.24,64.15,42.24,60.89,0,97.59-36.11,119.15-72.39,17.89,42.15,59.8,72.37,121.25,72.37,62.64,0,111.11-26.41,145.46-62.3l-10.71,42c-1.95,7.57,1.35,13.52,10.23,13.52h53.92c7.38,0,12.63-3.76,14.55-11.51.94-3.81,8.73-33.91,19.74-76.69,21-81.86,54.86-166.79,105.68-166.79,17.92,0,25.27,10,25.27,25.81a38.38,38.38,0,0,1-4,17.32c-24.63-4.9-44.45,7.26-44.45,33.56,0,17.14,18,32.71,42.37,32.71,18.59,0,34-4.56,46.23-12.81Q1696,400,1714,404.08a238.06,238.06,0,0,0-2.83,35.87c0,65.7,46.92,121.42,131,121.42,65.9,0,111.12-24.1,150.15-55,18.77,30.71,66.15,55.52,128.31,55.52,85.19,0,133.51-44.3,133.51-102.85,0-53-43.51-72.51-88.38-88.75-36.47-13.18-66.89-20.34-66.89-46.12,0-21.12,16.63-30.79,45.14-30.79a140,140,0,0,1,39.79,6.07c7.35,18.4,22.57,38.78,48.55,38.78,22,0,31.85-17.38,31.85-33.39,0-45.58-75.92-50.36-75.92-148.1,0-60.78,34.39-110.92,105.62-110.92,49.49,0,81.81,31.38,81.81,82,0,41.76-25.33,116.1-25.33,116.1h-43c-8.28,0-13.16,3.38-15,11.12q-4.36,18-9,36c-1.81,7,2.25,12.27,10,12.27h42s-43.46,160.26-43.46,189.41c0,39.13,22,68.62,70.38,68.62,68.35,0,111.07-44.42,129.64-109,1.44-5-1.39-9.06-6.45-9.06h-26.08c-5.2,0-8.22,3-9.54,8.05-5.89,22.93-20.49,47.05-49.23,47.05-16.72,0-26-10.49-26-28.32,0-15.39,10.19-51.44,22.73-100.2,6-23.22,16.61-66.54,16.61-66.54ZM1875,300.58c24.17,0,35.65,16.08,35.65,35.24,0,32.42-25.13,52.18-64.45,52.18-14.07,0-33.75-3.33-45.36-7.2C1805.73,351,1827.31,300.58,1875,300.58Zm-568.59,0c26.46,0,35.64,16.08,35.64,35.24,0,32.42-25.13,52.18-64.44,52.18-14.08,0-33.75-3.33-45.36-7.2C1237.12,351,1256.25,300.58,1306.42,300.58ZM260.41,0C87.94,0,1,123.66,1,226.78c0,62.43,23.64,118,74.34,138.67,8.31,3.41,15.76.12,18.17-9.08,1.67-6.37,5.64-22.44,7.41-29.14,2.44-9.1,1.49-12.29-5.22-20.23-14.62-17.24-24-39.57-24-71.19,0-91.74,68.64-173.87,178.73-173.87,97.49,0,151.05,59.57,151.05,139.12,0,104.67-46.32,193-115.09,193-38,0-66.41-31.41-57.3-69.93,10.91-46,32.05-95.61,32.05-128.81,0-29.71-16-54.5-49-54.5-38.82,0-70,40.16-70,94,0,34.27,11.58,57.45,11.58,57.45L107.08,490.05C93.21,548.76,105,620.74,106,628c.58,4.31,6.12,5.33,8.63,2.08,3.58-4.67,49.81-61.75,65.54-118.79,4.44-16.15,25.53-99.78,25.53-99.78,12.61,24.05,49.47,45.25,88.68,45.25,116.69,0,195.87-106.39,195.87-248.8C490.24,100.28,399,0,260.41,0Z" transform="translate(-0.98)"/></svg>