<svg id="Layer_1" data-name="Layer 1" xmlns="http://www.w3.org/2000/svg" viewBox="0 0 2499.17 585"><title>product-hunt</title><g id="Page-1"><g id="product-hunt-logo-horizontal-orange"><path d="M585.54,292.5C585.54,454.11,454.64,585,293,585S.54,454.11.54,292.5,131.43,0,293,0s292.5,130.89,292.5,292.5m-253.5,0H249.16V204.75H332a43.88,43.88,0,0,1,0,87.75m0-146.25H190.66v292.5h58.5V351H332a102.38,102.38,0,0,0,0-204.75" transform="translate(-0.54)"/><path id="Fill-5" d="M892.91,256.67c0-16.09-12.43-25.84-28.52-25.84H821.24v51.43h43.15C880.48,282.26,892.91,272.51,892.91,256.67ZM780.54,390V195h89.7c41.68,0,64.35,28,64.35,61.67,0,33.39-22.91,61.42-64.35,61.42H821.49V390Z" transform="translate(-0.54)"/><path id="Fill-7" d="M959.21,390V247.89h36.56v18.77c10-11.94,27.06-22.18,44.36-22.18v35.59a55.68,55.68,0,0,0-10-.73c-12.19,0-28.28,6.82-34.13,15.84v95.06h-36.8Z" transform="translate(-0.54)"/><path id="Fill-9" d="M1162.74,317.12c0-21.45-12.68-40.22-35.59-40.22-22.67,0-35.34,18.77-35.34,40.22,0,21.94,12.67,40.46,35.34,40.46,22.91,0,35.59-18.77,35.59-40.46m-109,0c0-39.24,27.55-72.64,73.13-72.64,46.07,0,73.61,33.4,73.61,72.64S1173,390,1126.91,390c-45.58,0-73.13-33.64-73.13-72.88" transform="translate(-0.54)"/><path id="Fill-11" d="M1323.37,341.74v-49c-6.09-9.26-19.26-15.84-31.2-15.84-21,0-35.34,16.33-35.34,40.22,0,24.13,14.38,40.46,35.34,40.46,11.94,0,25.11-6.58,31.2-15.84Zm0,48.26V368.79c-11,13.9-25.84,21.21-42.9,21.21-34.86,0-61.43-26.33-61.43-72.88,0-45.09,26.09-72.64,61.43-72.64a52.84,52.84,0,0,1,42.9,21.21V195h36.81V390Z" transform="translate(-0.54)"/><path id="Fill-13" d="M1489.85,390V369a66.28,66.28,0,0,1-48.75,21c-30.47,0-44.85-16.58-44.85-43.63V247.89h36.56V332c0,19.25,10,25.59,25.6,25.59,14.13,0,25.35-7.8,31.68-15.84V247.89h36.57V390Z" transform="translate(-0.54)"/><path id="Fill-15" d="M1553.71,317.12c0-42.41,31-72.64,73.62-72.64,28.51,0,45.58,12.43,54.84,25.11L1658.28,292c-6.58-9.75-16.57-14.87-29.25-14.87-22.18,0-37.54,16.09-37.54,40.22s15.6,40.47,37.54,40.47a34.8,34.8,0,0,0,29.25-15.12l23.89,22.43c-9.26,12.67-26.33,25.35-54.84,25.35-42.66-.49-73.62-30.71-73.62-73.37" transform="translate(-0.54)"/><path id="Fill-17" d="M1713.61,351.73V279.58H1690.7V247.65h22.91V209.87h36.57v38h28v31.93h-28v62.4c0,9,4.63,15.6,12.67,15.6,5.36,0,10.73-1.95,12.68-4.38l7.8,27.78c-5.37,4.88-15.12,9-30.47,9-25.84-.24-39.25-13.4-39.25-38.51" transform="translate(-0.54)"/><path id="Fill-19" d="M2011.72,390V305.91h-90.43V390h-40.71V195h40.71v75.32h90.43V195h41.19V390Z" transform="translate(-0.54)"/><path id="Fill-21" d="M2183.32,390V369a66.28,66.28,0,0,1-48.75,21c-30.47,0-44.85-16.58-44.85-43.63V247.89h36.56V332c0,19.25,10,25.59,25.6,25.59,14.13,0,25.35-7.8,31.68-15.84V247.89h36.57V390Z" transform="translate(-0.54)"/><path id="Fill-23" d="M2349.56,390V302.74c0-19.26-10-25.84-25.6-25.84-14.38,0-25.35,8-31.68,16.09v97h-36.57V247.89h36.57v17.8c9-10.24,26.08-21.21,48.5-21.21,30.71,0,45.34,17.31,45.34,44.12V390Z" transform="translate(-0.54)"/><path id="Fill-25" d="M2430,351.73V279.58h-22.91V247.65H2430V209.87h36.57v38h28v31.93h-28v62.4c0,9,4.63,15.6,12.67,15.6,5.36,0,10.73-1.95,12.68-4.38l7.8,27.78c-5.37,4.88-15.12,9-30.47,9-25.84-.24-39.25-13.4-39.25-38.51" transform="translate(-0.54)"/></g></g></svg>