<svg width="100" height="100" viewBox="0 0 100 100" fill="none" xmlns="http://www.w3.org/2000/svg">
<path fill-rule="evenodd" clip-rule="evenodd" d="M52.1974 15.5789C63.1448 4.63157 80.829 4.63157 91.7764 15.5789C102.724 26.5263 102.724 44.2105 91.7764 55.1579L55.6711 91.2631C52.5132 94.3158 47.5658 94.3158 44.4079 91.2631L8.19742 55.1579C-2.74995 44.2105 -2.74995 26.5263 8.30268 15.5789C19.25 4.63157 36.9343 4.63157 47.8816 15.5789L50.0922 17.7895L52.1974 15.5789ZM77.3058 40.4805H85.8171C88.7 40.4805 91.171 38.1464 91.0338 35.2631C91.0338 32.3799 88.7 30.0458 85.8171 30.0458H77.3058V21.5332C77.3058 18.6499 74.972 16.3158 72.0891 16.3158C69.2062 16.3158 66.8725 18.6499 66.8725 21.5332V30.0458H58.3611C55.4782 30.0458 53.1445 32.3799 53.1445 35.2631C53.1445 38.1464 55.4782 40.4805 58.3611 40.4805H66.8725V48.9931C66.8725 51.8764 69.2062 54.2105 72.0891 54.2105C74.972 54.2105 77.3058 51.8764 77.3058 48.9931V40.4805Z" fill="#BF215B"/>
</svg>
