<?xml version="1.0" encoding="UTF-8"?>
<svg width="31px" height="27px" viewBox="0 0 31 27" version="1.1" xmlns="http://www.w3.org/2000/svg" xmlns:xlink="http://www.w3.org/1999/xlink">
    <!-- Generator: Sketch 59.1 (86144) - https://sketch.com -->
    <title>Fill 3heart</title>
    <desc>Created with Sketch.</desc>
    <g id="Page-1" stroke="none" stroke-width="1" fill="none" fill-rule="evenodd">
        <path d="M31,8.20313416 C31,3.68024947 27.360797,0 22.8888352,0 C19.6065958,0 16.7756755,1.98136429 15.4993737,4.82193366 C14.2243245,1.98136429 11.3927779,0 8.11210417,0 C3.63821148,0 0,3.68024947 0,8.20313416 C0,9.15722014 0.162042727,10.0722034 0.460190906,10.925076 C0.799410784,11.8958374 1.31361593,12.7825358 1.96549216,13.5472821 C2.24344371,13.8745104 2.54540159,14.1783087 2.87131361,14.457516 L15.2438629,26.8845915 C15.3200047,26.9617416 15.4191613,27 15.5193094,27 C15.6203448,27 15.7201798,26.9617416 15.7968957,26.8845915 L28.6289052,13.9932435 L28.628018,13.991502 C29.4596286,13.1486557 30.111818,12.1257574 30.5202387,10.9840204 C30.8303901,10.115475 31,9.17880317 31,8.20313416" id="Fill-3" fill="#ED2551"></path>
    </g>
</svg>