<?xml version="1.0" encoding="utf-8"?>
<!-- Generator: Adobe Illustrator 24.0.0, SVG Export Plug-In . SVG Version: 6.00 Build 0)  -->
<svg version="1.1" id="Layer_3" xmlns="http://www.w3.org/2000/svg" xmlns:xlink="http://www.w3.org/1999/xlink" x="0px" y="0px"
	 width="1345.7px" height="869.8px" viewBox="0 0 1345.7 869.8" style="enable-background:new 0 0 1345.7 869.8;"
	 xml:space="preserve">
<style type="text/css">
	.st0{fill:#BF215B;}
	.st1{fill:#FFFFFF;fill-opacity:0.1;}
</style>
<title>11</title>
<path class="st0" d="M0,869.8V0h1345.7v869.8H0z"/>
<path class="st1" d="M993.6,147.7c44.6,66.6-15.8,158.4-108.3,166.2c-26.6,2.3-58.8,3.6-97.4,3.1C603.5,314.5,380.3,448.2,313,475.3
	c-120.2,48.3-445,95.9-310.7-106C178.1,105.4-8.8-94.4,134.2-148.8c123.3-46.9,329.9-13.3,426.7,15.9
	c90,27.2,317.9,120.3,430.9,278.2C992.5,146.1,993,146.9,993.6,147.7z"/>
<path class="st1" d="M907.8,998.2c0,0-63.2-137.7-214.1-237.2s-88.4-211-31.6-227.3c38-10.9,229.6,29.7,333.8-46.6
	s167.9-160.1,203.7-167.6c34.8-7.3,87.7-30.1,15.5,298.6c-72.2,328.8-144.8,395.2-177.4,419.4
	C1016.6,1053.2,961.8,1075.6,907.8,998.2z"/>
</svg>
